<mxfile host="app.diagrams.net" modified="2023-10-16T15:54:47.577Z" agent="Mozilla/5.0 (X11; Linux x86_64; rv:109.0) Gecko/20100101 Firefox/115.0" etag="ZuJpttb64NYA_ZVjn4OE" version="22.0.4" type="device">
  <diagram name="Página-1" id="H1gAe4TEgG37sk8PaRr4">
    <mxGraphModel dx="1434" dy="728" grid="1" gridSize="10" guides="1" tooltips="1" connect="1" arrows="1" fold="1" page="1" pageScale="1" pageWidth="1169" pageHeight="827" math="0" shadow="0">
      <root>
        <mxCell id="0" />
        <mxCell id="1" parent="0" />
        <mxCell id="3jQ3pkgaZVPvUWSegzT8-51" value="" style="edgeStyle=orthogonalEdgeStyle;rounded=0;orthogonalLoop=1;jettySize=auto;html=1;entryX=1;entryY=0.5;entryDx=0;entryDy=0;" parent="1" source="3jQ3pkgaZVPvUWSegzT8-37" target="92Ic1f4GOHtqkY5--vdJ-6" edge="1">
          <mxGeometry relative="1" as="geometry" />
        </mxCell>
        <mxCell id="3jQ3pkgaZVPvUWSegzT8-37" value="&lt;div&gt;&lt;font style=&quot;font-size: 18px;&quot;&gt;K&lt;/font&gt;&lt;font style=&quot;font-size: 18px;&quot;&gt;&lt;sup&gt;-&lt;/sup&gt;&lt;sub&gt;B&lt;/sub&gt;&lt;/font&gt;&lt;font style=&quot;font-size: 12px;&quot;&gt; Clave privada&amp;nbsp;&lt;/font&gt;&lt;/div&gt;&lt;div&gt;&lt;font style=&quot;font-size: 12px;&quot;&gt;del usuario&lt;/font&gt;&lt;/div&gt;" style="points=[[0,0.5,0],[0.24,0,0],[0.5,0.28,0],[0.995,0.475,0],[0.5,0.72,0],[0.24,1,0]];verticalLabelPosition=middle;sketch=0;html=1;verticalAlign=middle;aspect=fixed;align=left;pointerEvents=1;shape=mxgraph.cisco19.key;fillColor=#005073;strokeColor=none;labelPosition=right;" parent="1" vertex="1">
          <mxGeometry x="320" y="470" width="50" height="22.5" as="geometry" />
        </mxCell>
        <mxCell id="3jQ3pkgaZVPvUWSegzT8-49" value="&lt;div align=&quot;left&quot;&gt;&lt;font style=&quot;font-size: 20px;&quot;&gt;&lt;b&gt;Firma digital&lt;/b&gt;&lt;/font&gt;&lt;/div&gt;" style="text;strokeColor=none;align=left;fillColor=none;html=1;verticalAlign=middle;whiteSpace=wrap;rounded=0;fontColor=#000099;" parent="1" vertex="1">
          <mxGeometry x="155" y="290" width="360" height="30" as="geometry" />
        </mxCell>
        <mxCell id="92Ic1f4GOHtqkY5--vdJ-3" value="" style="edgeStyle=orthogonalEdgeStyle;rounded=0;orthogonalLoop=1;jettySize=auto;html=1;" edge="1" parent="1" source="92Ic1f4GOHtqkY5--vdJ-1" target="92Ic1f4GOHtqkY5--vdJ-2">
          <mxGeometry relative="1" as="geometry" />
        </mxCell>
        <mxCell id="92Ic1f4GOHtqkY5--vdJ-12" value="" style="edgeStyle=orthogonalEdgeStyle;rounded=0;orthogonalLoop=1;jettySize=auto;html=1;entryX=0.5;entryY=0;entryDx=0;entryDy=0;" edge="1" parent="1" source="92Ic1f4GOHtqkY5--vdJ-1" target="92Ic1f4GOHtqkY5--vdJ-10">
          <mxGeometry relative="1" as="geometry">
            <mxPoint x="490" y="494" as="targetPoint" />
          </mxGeometry>
        </mxCell>
        <mxCell id="92Ic1f4GOHtqkY5--vdJ-1" value="&lt;div&gt;&lt;b&gt;Mensaje Largo&lt;/b&gt;&lt;/div&gt;&lt;div&gt;&lt;b&gt;(m)&lt;/b&gt;&lt;/div&gt;" style="rounded=0;whiteSpace=wrap;html=1;fillColor=#ffe6cc;strokeColor=#d79b00;" vertex="1" parent="1">
          <mxGeometry x="430" y="354" width="120" height="60" as="geometry" />
        </mxCell>
        <mxCell id="92Ic1f4GOHtqkY5--vdJ-5" value="" style="edgeStyle=orthogonalEdgeStyle;rounded=0;orthogonalLoop=1;jettySize=auto;html=1;" edge="1" parent="1" source="92Ic1f4GOHtqkY5--vdJ-2" target="92Ic1f4GOHtqkY5--vdJ-4">
          <mxGeometry relative="1" as="geometry" />
        </mxCell>
        <mxCell id="92Ic1f4GOHtqkY5--vdJ-2" value="&lt;div&gt;&lt;b&gt;Función de dispersión&lt;/b&gt;&lt;/div&gt;&lt;div&gt;&lt;b&gt;H&lt;/b&gt;&lt;br&gt;&lt;/div&gt;" style="rounded=0;whiteSpace=wrap;html=1;fillColor=#dae8fc;strokeColor=#6c8ebf;" vertex="1" parent="1">
          <mxGeometry x="270" y="354" width="120" height="60" as="geometry" />
        </mxCell>
        <mxCell id="92Ic1f4GOHtqkY5--vdJ-7" value="" style="edgeStyle=orthogonalEdgeStyle;rounded=0;orthogonalLoop=1;jettySize=auto;html=1;" edge="1" parent="1" source="92Ic1f4GOHtqkY5--vdJ-4" target="92Ic1f4GOHtqkY5--vdJ-6">
          <mxGeometry relative="1" as="geometry" />
        </mxCell>
        <mxCell id="92Ic1f4GOHtqkY5--vdJ-4" value="&lt;div&gt;&lt;b&gt;&lt;font style=&quot;font-size: 17px;&quot;&gt;H (m)&lt;/font&gt;&lt;/b&gt;&lt;/div&gt;" style="rounded=0;whiteSpace=wrap;html=1;fillColor=#ffe6cc;strokeColor=#d79b00;" vertex="1" parent="1">
          <mxGeometry x="170" y="354" width="60" height="60" as="geometry" />
        </mxCell>
        <mxCell id="92Ic1f4GOHtqkY5--vdJ-39" value="" style="edgeStyle=orthogonalEdgeStyle;rounded=0;orthogonalLoop=1;jettySize=auto;html=1;" edge="1" parent="1" source="92Ic1f4GOHtqkY5--vdJ-6" target="92Ic1f4GOHtqkY5--vdJ-8">
          <mxGeometry relative="1" as="geometry" />
        </mxCell>
        <mxCell id="92Ic1f4GOHtqkY5--vdJ-6" value="&lt;br&gt;&lt;div&gt;&lt;b&gt;Firma digital&lt;/b&gt;&lt;/div&gt;(Encriptado del hash con la clave privada)" style="rounded=0;whiteSpace=wrap;html=1;fillColor=#dae8fc;strokeColor=#6c8ebf;" vertex="1" parent="1">
          <mxGeometry x="140" y="451.25" width="120" height="60" as="geometry" />
        </mxCell>
        <mxCell id="92Ic1f4GOHtqkY5--vdJ-14" value="" style="edgeStyle=orthogonalEdgeStyle;rounded=0;orthogonalLoop=1;jettySize=auto;html=1;entryX=0;entryY=0.5;entryDx=0;entryDy=0;" edge="1" parent="1" source="92Ic1f4GOHtqkY5--vdJ-8" target="92Ic1f4GOHtqkY5--vdJ-10">
          <mxGeometry relative="1" as="geometry">
            <mxPoint x="460" y="580" as="targetPoint" />
          </mxGeometry>
        </mxCell>
        <mxCell id="92Ic1f4GOHtqkY5--vdJ-8" value="&lt;div&gt;&lt;b&gt;Hash del mensaje firmado&lt;/b&gt;&lt;/div&gt;&lt;div&gt;&lt;b&gt;&lt;font style=&quot;font-size: 18px;&quot;&gt;K&lt;/font&gt;&lt;font style=&quot;font-size: 18px;&quot;&gt;&lt;sup&gt;-&lt;/sup&gt;&lt;sub&gt;B &lt;/sub&gt;&lt;/font&gt;&lt;font size=&quot;1&quot;&gt;&lt;font style=&quot;font-size: 18px;&quot;&gt;(&lt;/font&gt;&lt;/font&gt;&lt;font style=&quot;font-size: 18px;&quot;&gt;&lt;font style=&quot;font-size: 18px;&quot;&gt;H&lt;/font&gt;(m))&amp;nbsp;&lt;/font&gt;&lt;span style=&quot;font-size: 18px;&quot;&gt; &lt;br&gt;&lt;/span&gt;&lt;/b&gt;&lt;/div&gt;" style="rounded=0;whiteSpace=wrap;html=1;fillColor=#ffe6cc;strokeColor=#d79b00;" vertex="1" parent="1">
          <mxGeometry x="140" y="550" width="120" height="60" as="geometry" />
        </mxCell>
        <mxCell id="92Ic1f4GOHtqkY5--vdJ-10" value="&lt;font style=&quot;font-size: 29px;&quot;&gt;&lt;sup&gt;+&lt;/sup&gt;&lt;/font&gt;" style="ellipse;whiteSpace=wrap;html=1;aspect=fixed;fillColor=#d5e8d4;strokeColor=#82b366;" vertex="1" parent="1">
          <mxGeometry x="465" y="555" width="50" height="50" as="geometry" />
        </mxCell>
        <mxCell id="92Ic1f4GOHtqkY5--vdJ-15" value="" style="shape=flexArrow;endArrow=classic;html=1;rounded=0;labelPosition=right;verticalLabelPosition=top;align=left;verticalAlign=bottom;fillColor=#d5e8d4;strokeColor=#82b366;" edge="1" parent="1">
          <mxGeometry width="50" height="50" relative="1" as="geometry">
            <mxPoint x="540" y="579.5" as="sourcePoint" />
            <mxPoint x="680" y="580" as="targetPoint" />
          </mxGeometry>
        </mxCell>
        <mxCell id="92Ic1f4GOHtqkY5--vdJ-18" value="&lt;b&gt;&lt;font style=&quot;font-size: 15px;&quot;&gt;Enviamos el mensaje firmado&lt;/font&gt;&lt;/b&gt;" style="text;strokeColor=none;align=center;fillColor=none;html=1;verticalAlign=middle;whiteSpace=wrap;rounded=0;" vertex="1" parent="1">
          <mxGeometry x="535" y="590" width="145" height="30" as="geometry" />
        </mxCell>
        <mxCell id="92Ic1f4GOHtqkY5--vdJ-21" value="" style="edgeStyle=orthogonalEdgeStyle;rounded=0;orthogonalLoop=1;jettySize=auto;html=1;entryX=0.5;entryY=1;entryDx=0;entryDy=0;" edge="1" parent="1" source="92Ic1f4GOHtqkY5--vdJ-19" target="92Ic1f4GOHtqkY5--vdJ-28">
          <mxGeometry relative="1" as="geometry">
            <mxPoint x="725" y="530" as="targetPoint" />
          </mxGeometry>
        </mxCell>
        <mxCell id="92Ic1f4GOHtqkY5--vdJ-23" value="" style="edgeStyle=orthogonalEdgeStyle;rounded=0;orthogonalLoop=1;jettySize=auto;html=1;" edge="1" parent="1" source="92Ic1f4GOHtqkY5--vdJ-19" target="92Ic1f4GOHtqkY5--vdJ-22">
          <mxGeometry relative="1" as="geometry" />
        </mxCell>
        <mxCell id="92Ic1f4GOHtqkY5--vdJ-19" value="&lt;font style=&quot;font-size: 29px;&quot;&gt;&lt;sup&gt;+&lt;/sup&gt;&lt;/font&gt;" style="ellipse;whiteSpace=wrap;html=1;aspect=fixed;fillColor=#d5e8d4;strokeColor=#82b366;" vertex="1" parent="1">
          <mxGeometry x="700" y="555" width="50" height="50" as="geometry" />
        </mxCell>
        <mxCell id="92Ic1f4GOHtqkY5--vdJ-26" value="" style="edgeStyle=orthogonalEdgeStyle;rounded=0;orthogonalLoop=1;jettySize=auto;html=1;" edge="1" parent="1" source="92Ic1f4GOHtqkY5--vdJ-22" target="92Ic1f4GOHtqkY5--vdJ-24">
          <mxGeometry relative="1" as="geometry" />
        </mxCell>
        <mxCell id="92Ic1f4GOHtqkY5--vdJ-22" value="&lt;div&gt;Obtenemos el&lt;/div&gt;&lt;div&gt;&lt;b&gt;Mensaje Original&lt;br&gt;&lt;/b&gt;&lt;/div&gt;&lt;div&gt;&lt;b&gt;m&lt;/b&gt;&lt;br&gt;&lt;/div&gt;" style="whiteSpace=wrap;html=1;fillColor=#ffe6cc;strokeColor=#d79b00;" vertex="1" parent="1">
          <mxGeometry x="1040" y="550" width="120" height="60" as="geometry" />
        </mxCell>
        <mxCell id="92Ic1f4GOHtqkY5--vdJ-27" value="" style="edgeStyle=orthogonalEdgeStyle;rounded=0;orthogonalLoop=1;jettySize=auto;html=1;" edge="1" parent="1" source="92Ic1f4GOHtqkY5--vdJ-24" target="92Ic1f4GOHtqkY5--vdJ-25">
          <mxGeometry relative="1" as="geometry" />
        </mxCell>
        <mxCell id="92Ic1f4GOHtqkY5--vdJ-24" value="&lt;div&gt;&lt;b&gt;Función de dispersión&lt;/b&gt;&lt;/div&gt;&lt;div&gt;&lt;b&gt;H&lt;/b&gt;&lt;br&gt;&lt;/div&gt;" style="rounded=0;whiteSpace=wrap;html=1;fillColor=#dae8fc;strokeColor=#6c8ebf;" vertex="1" parent="1">
          <mxGeometry x="1040" y="451.25" width="120" height="60" as="geometry" />
        </mxCell>
        <mxCell id="92Ic1f4GOHtqkY5--vdJ-38" value="" style="edgeStyle=orthogonalEdgeStyle;rounded=0;orthogonalLoop=1;jettySize=auto;html=1;entryX=0.804;entryY=1;entryDx=0;entryDy=0;entryPerimeter=0;" edge="1" parent="1" source="92Ic1f4GOHtqkY5--vdJ-25" target="92Ic1f4GOHtqkY5--vdJ-34">
          <mxGeometry relative="1" as="geometry">
            <mxPoint x="1100" y="250" as="targetPoint" />
          </mxGeometry>
        </mxCell>
        <mxCell id="92Ic1f4GOHtqkY5--vdJ-25" value="&lt;div&gt;&lt;b&gt;&lt;font style=&quot;font-size: 17px;&quot;&gt;H (m)&lt;/font&gt;&lt;/b&gt;&lt;/div&gt;" style="rounded=0;whiteSpace=wrap;html=1;fillColor=#ffe6cc;strokeColor=#d79b00;" vertex="1" parent="1">
          <mxGeometry x="1070" y="330" width="60" height="60" as="geometry" />
        </mxCell>
        <mxCell id="92Ic1f4GOHtqkY5--vdJ-33" value="" style="edgeStyle=orthogonalEdgeStyle;rounded=0;orthogonalLoop=1;jettySize=auto;html=1;" edge="1" parent="1" source="92Ic1f4GOHtqkY5--vdJ-28" target="92Ic1f4GOHtqkY5--vdJ-32">
          <mxGeometry relative="1" as="geometry" />
        </mxCell>
        <mxCell id="92Ic1f4GOHtqkY5--vdJ-28" value="&lt;div&gt;&lt;b&gt;Hash del mensaje firmado&lt;/b&gt;&lt;/div&gt;&lt;div&gt;&lt;b&gt;&lt;font style=&quot;font-size: 18px;&quot;&gt;K&lt;/font&gt;&lt;font style=&quot;font-size: 18px;&quot;&gt;&lt;sup&gt;-&lt;/sup&gt;&lt;sub&gt;B &lt;/sub&gt;&lt;/font&gt;&lt;font size=&quot;1&quot;&gt;&lt;font style=&quot;font-size: 18px;&quot;&gt;(&lt;/font&gt;&lt;/font&gt;&lt;font style=&quot;font-size: 18px;&quot;&gt;&lt;font style=&quot;font-size: 18px;&quot;&gt;H&lt;/font&gt;(m))&amp;nbsp;&lt;/font&gt;&lt;span style=&quot;font-size: 18px;&quot;&gt; &lt;br&gt;&lt;/span&gt;&lt;/b&gt;&lt;/div&gt;" style="rounded=0;whiteSpace=wrap;html=1;fillColor=#ffe6cc;strokeColor=#d79b00;" vertex="1" parent="1">
          <mxGeometry x="665" y="451.25" width="120" height="60" as="geometry" />
        </mxCell>
        <mxCell id="92Ic1f4GOHtqkY5--vdJ-31" value="" style="edgeStyle=orthogonalEdgeStyle;rounded=0;orthogonalLoop=1;jettySize=auto;html=1;" edge="1" parent="1" source="92Ic1f4GOHtqkY5--vdJ-29" target="92Ic1f4GOHtqkY5--vdJ-28">
          <mxGeometry relative="1" as="geometry" />
        </mxCell>
        <mxCell id="92Ic1f4GOHtqkY5--vdJ-29" value="&lt;div&gt;&lt;font style=&quot;font-size: 18px;&quot;&gt;K&lt;/font&gt;&lt;font style=&quot;font-size: 18px;&quot;&gt;&lt;sup&gt;+&lt;/sup&gt;&lt;sub&gt;B&lt;/sub&gt;&lt;/font&gt;&lt;font style=&quot;font-size: 12px;&quot;&gt; Clave pública&lt;/font&gt;&lt;/div&gt;&lt;div&gt;&lt;font style=&quot;font-size: 12px;&quot;&gt;del usuario&lt;/font&gt;&lt;/div&gt;" style="points=[[0,0.5,0],[0.24,0,0],[0.5,0.28,0],[0.995,0.475,0],[0.5,0.72,0],[0.24,1,0]];verticalLabelPosition=middle;sketch=0;html=1;verticalAlign=middle;aspect=fixed;align=left;pointerEvents=1;shape=mxgraph.cisco19.key;fillColor=#005073;strokeColor=none;labelPosition=right;" vertex="1" parent="1">
          <mxGeometry x="840" y="470" width="50" height="22.5" as="geometry" />
        </mxCell>
        <mxCell id="92Ic1f4GOHtqkY5--vdJ-30" style="edgeStyle=orthogonalEdgeStyle;rounded=0;orthogonalLoop=1;jettySize=auto;html=1;exitX=0.5;exitY=0.28;exitDx=0;exitDy=0;exitPerimeter=0;entryX=0.8;entryY=0.667;entryDx=0;entryDy=0;entryPerimeter=0;" edge="1" parent="1" source="92Ic1f4GOHtqkY5--vdJ-29" target="92Ic1f4GOHtqkY5--vdJ-29">
          <mxGeometry relative="1" as="geometry" />
        </mxCell>
        <mxCell id="92Ic1f4GOHtqkY5--vdJ-36" value="" style="edgeStyle=orthogonalEdgeStyle;rounded=0;orthogonalLoop=1;jettySize=auto;html=1;entryX=0.14;entryY=1;entryDx=0;entryDy=0;entryPerimeter=0;" edge="1" parent="1" source="92Ic1f4GOHtqkY5--vdJ-32" target="92Ic1f4GOHtqkY5--vdJ-34">
          <mxGeometry relative="1" as="geometry">
            <mxPoint x="725" y="250" as="targetPoint" />
          </mxGeometry>
        </mxCell>
        <mxCell id="92Ic1f4GOHtqkY5--vdJ-32" value="&lt;div&gt;&lt;b&gt;&lt;font style=&quot;font-size: 17px;&quot;&gt;H (m)&lt;/font&gt;&lt;/b&gt;&lt;/div&gt;" style="rounded=0;whiteSpace=wrap;html=1;fillColor=#ffe6cc;strokeColor=#d79b00;" vertex="1" parent="1">
          <mxGeometry x="695" y="330" width="60" height="60" as="geometry" />
        </mxCell>
        <mxCell id="92Ic1f4GOHtqkY5--vdJ-34" value="&lt;div style=&quot;font-size: 15px;&quot;&gt;&lt;font style=&quot;font-size: 15px;&quot;&gt;&lt;b&gt;¿Son iguales?&lt;/b&gt;&lt;/font&gt;&lt;/div&gt;&lt;div style=&quot;font-size: 15px;&quot;&gt;&lt;font style=&quot;font-size: 15px;&quot;&gt;&lt;b&gt;Si son iguales firma verificada!!!&lt;/b&gt;&lt;font style=&quot;font-size: 15px;&quot;&gt;&lt;br&gt;&lt;/font&gt;&lt;/font&gt;&lt;/div&gt;" style="text;align=center;html=1;verticalAlign=middle;whiteSpace=wrap;rounded=0;fillColor=#dae8fc;strokeColor=#6c8ebf;" vertex="1" parent="1">
          <mxGeometry x="790" y="270" width="250" height="50" as="geometry" />
        </mxCell>
      </root>
    </mxGraphModel>
  </diagram>
</mxfile>
